<svg xmlns="http://www.w3.org/2000/svg" width="280" height="197" fill="none" viewBox="0 0 280 197">
  <path fill="#142641" d="M227.668 29.708H48.132a9.095 9.095 0 0 0-9.095 9.095v95.998a9.095 9.095 0 0 0 9.095 9.096h179.536a9.095 9.095 0 0 0 9.096-9.096V38.803a9.095 9.095 0 0 0-9.096-9.095Z" opacity=".3"/>
  <path fill="#fff" d="M231.868 24.108H52.332a9.095 9.095 0 0 0-9.096 9.095v95.998a9.095 9.095 0 0 0 9.096 9.096h179.536a9.095 9.095 0 0 0 9.095-9.096V33.203a9.095 9.095 0 0 0-9.095-9.095Z"/>
  <path fill="#142641" d="M231.868 139.459H52.332c-5.656 0-10.262-4.602-10.262-10.262V33.199c0-5.656 4.602-10.262 10.262-10.262h179.536c5.656 0 10.262 4.601 10.262 10.262v95.998c0 5.656-4.601 10.262-10.262 10.262ZM52.332 25.275c-4.372 0-7.928 3.556-7.928 7.928v95.998c0 4.373 3.556 7.929 7.928 7.929h179.536c4.373 0 7.929-3.556 7.929-7.929V33.199c0-4.373-3.556-7.929-7.929-7.929H52.332v.005Z"/>
  <path fill="#142641" d="M84.266 82.614c-8.82 0-15.997-7.177-15.997-15.997s7.177-15.998 15.997-15.998 15.997 7.178 15.997 15.998-7.177 15.997-15.997 15.997Zm0-29.657c-7.532 0-13.664 6.128-13.664 13.664 0 7.537 6.127 13.664 13.664 13.664S97.93 74.158 97.93 66.621c0-7.536-6.127-13.664-13.664-13.664Z"/>
  <path fill="#142641" d="M109.971 102.634a1.168 1.168 0 0 1-1.167-1.167c0-10.397-10.897-18.853-24.29-18.853-13.393 0-24.29 8.456-24.29 18.853a1.167 1.167 0 0 1-2.333 0c0-11.68 11.942-21.186 26.623-21.186 14.681 0 26.623 9.506 26.623 21.186 0 .644-.522 1.167-1.166 1.167Zm101.401-43.251h-86.076a1.167 1.167 0 0 1 0-2.333h86.076a1.167 1.167 0 0 1 0 2.333Zm.178 16.45h-86.077a1.166 1.166 0 0 1 0-2.333h86.077a1.167 1.167 0 0 1 0 2.333Zm-23.725 16.31h-62.333a1.167 1.167 0 0 1 0-2.333h62.333a1.167 1.167 0 0 1 0 2.333Zm.028 30.642c-.472 0-.92-.29-1.092-.761a1.174 1.174 0 0 1 .686-1.503 15.118 15.118 0 0 0 5.45-3.537c-.756-.205-1.54-.569-2.142-1.195-.714-.746-1.05-1.736-.961-2.86.065-.887.434-1.783 1.059-2.59.122-.159.243-.318.364-.481.593-.798 1.27-1.703 2.259-2.31 1.036-.635 2.249-.779 3.253-.397.928.355 1.619 1.144 1.941 2.226.28.934.238 1.96-.126 2.964a16.73 16.73 0 0 1-1.013 2.272 13.8 13.8 0 0 0 4.238-1.689 1.379 1.379 0 0 1 1.922 1.843c-.256.467-.499 1.092-.2 1.433.224.257.662.252.975.117.616-.271 1.064-.822 1.549-1.9a1.71 1.71 0 0 1 1.204-.966 1.75 1.75 0 0 1 1.517.411c1.185 1.069 2.837 1.633 4.391 1.517 1.802-.131 3.533-1.162 4.513-2.679a1.169 1.169 0 0 1 1.965 1.265c-1.368 2.123-3.78 3.56-6.3 3.742a8.293 8.293 0 0 1-5.512-1.61c-.49.906-1.208 1.839-2.38 2.357-1.32.583-2.795.294-3.677-.719a2.865 2.865 0 0 1-.709-1.796 16.051 16.051 0 0 1-5.204 1.278 17.588 17.588 0 0 1-7.555 5.507 1.142 1.142 0 0 1-.406.075l-.009-.014Zm7.714-13.515c-.276 0-.593.093-.873.266-.607.369-1.092 1.022-1.605 1.713-.131.177-.262.35-.392.518-.243.312-.537.798-.579 1.339-.047.611.159.905.317 1.069.402.42 1.214.686 2.184.728a14.884 14.884 0 0 0 1.732-3.356c.186-.522.219-1.059.084-1.502-.173-.574-.448-.682-.542-.719a.93.93 0 0 0-.326-.056Zm30.454-70.947H59.057a1.167 1.167 0 0 1 0-2.334h166.964a1.167 1.167 0 0 1 0 2.334Zm-116.05 81.699H59.057a1.167 1.167 0 0 1 0-2.333h50.914a1.166 1.166 0 1 1 0 2.333Z"/>
  <path fill="#F43F5E" d="M241.505 155.423H38.495c-5.656 0-10.262-4.601-10.262-10.262V22.834c0-5.656 4.602-10.262 10.262-10.262H241.51c5.656 0 10.262 4.601 10.262 10.262v122.332c0 5.656-4.601 10.262-10.262 10.262l-.004-.005ZM38.495 14.91c-4.372 0-7.928 3.556-7.928 7.929v122.327c0 4.373 3.556 7.929 7.928 7.929H241.51c4.373 0 7.929-3.556 7.929-7.929V22.834c0-4.373-3.556-7.929-7.929-7.929H38.495v.005ZM140 191.333c7.603 0 13.767-6.163 13.767-13.766S147.603 163.8 140 163.8s-13.767 6.164-13.767 13.767 6.164 13.766 13.767 13.766Z"/>
  <path fill="#fff" d="m141.652 177.8 2.641-2.641a1.167 1.167 0 0 0 0-1.652 1.165 1.165 0 0 0-1.652 0L140 176.148l-2.642-2.641a1.165 1.165 0 0 0-1.652 0 1.167 1.167 0 0 0 0 1.652l2.642 2.641-2.642 2.641a1.167 1.167 0 0 0 .826 1.993c.299 0 .598-.112.826-.341l2.642-2.641 2.641 2.641c.229.229.527.341.826.341a1.167 1.167 0 0 0 .826-1.993l-2.641-2.641Z"/>
  <path fill="#F9FAFB" d="M103.6 22.867 56 139.533h47.6l42.233-116.666H103.6Zm56 0L112 139.534l7.7-.001 46.9-116.666h-7Z" opacity=".95"/>
</svg>