
<svg xmlns="http://www.w3.org/2000/svg" width="280" height="197" fill="none" viewBox="0 0 280 197">
  <path fill="#fff" d="M241.267 13.426H38.729a9.095 9.095 0 0 0-9.095 9.095V144.55a9.095 9.095 0 0 0 9.095 9.095h202.538a9.095 9.095 0 0 0 9.095-9.095V22.521a9.095 9.095 0 0 0-9.095-9.095Z"/>
  <path fill="#142641" d="M48.31 79.282a25.523 25.523 0 0 1-19.568-9.114 1.167 1.167 0 0 1 .14-1.643 1.167 1.167 0 0 1 1.643.14 23.19 23.19 0 0 0 17.78 8.284c12.81 0 23.23-10.421 23.23-23.231 0-12.81-10.42-23.23-23.23-23.23-7.01 0-13.57 3.117-18.004 8.553a1.17 1.17 0 0 1-1.643.168 1.17 1.17 0 0 1-.168-1.642 25.484 25.484 0 0 1 19.815-9.408c14.098 0 25.564 11.466 25.564 25.564S62.403 79.287 48.305 79.287l.004-.005Z"/>
  <path fill="#142641" d="M90.594 112.215a1.167 1.167 0 0 1-1.166-1.167c0-17.519-18.266-31.77-40.712-31.77-6.571 0-12.843 1.185-18.644 3.523a1.162 1.162 0 0 1-1.516-.644 1.162 1.162 0 0 1 .644-1.517c6.08-2.45 12.646-3.696 19.516-3.696 23.734 0 43.045 15.297 43.045 34.104 0 .644-.523 1.167-1.167 1.167Zm159.82-71.153H115.808a1.167 1.167 0 0 1 0-2.333h134.61a1.167 1.167 0 0 1 0 2.333h-.004Zm.186 27.062H116.102a1.167 1.167 0 0 1 0-2.333H250.6a1.167 1.167 0 0 1 0 2.333Zm-31.924 26.838H116.131a1.167 1.167 0 0 1 0-2.333h102.545a1.167 1.167 0 0 1 0 2.333Zm.046 50.405c-.472 0-.92-.29-1.092-.761a1.174 1.174 0 0 1 .686-1.503c3.915-1.46 7.415-3.901 10.168-6.99-1.484-.215-3.229-.756-4.447-2.026-1.022-1.068-1.498-2.496-1.377-4.13.098-1.311.649-2.646 1.592-3.859.205-.261.406-.532.606-.807.938-1.26 1.998-2.688 3.505-3.608 1.503-.919 3.257-1.143 4.69-.597.924.355 2.147 1.19 2.744 3.173.415 1.382.35 2.908-.191 4.406a26.902 26.902 0 0 1-2.422 5.016 23.26 23.26 0 0 0 8.82-3.164 1.5 1.5 0 0 1 1.838.196c.504.481.612 1.214.276 1.825-.78 1.419-.864 2.497-.243 3.211.546.63 1.568.788 2.473.382 1.484-.658 2.287-2.072 2.936-3.504a1.166 1.166 0 1 1 2.128.961c-.798 1.764-1.914 3.701-4.121 4.676-1.867.826-3.948.429-5.175-.985-.868-.998-1.162-2.268-.878-3.691a25.575 25.575 0 0 1-9.804 2.604c-3.164 4.065-7.439 7.266-12.306 9.081a1.124 1.124 0 0 1-.406.075v.019Zm12.679-22.237c-.588 0-1.237.187-1.825.546-1.12.686-1.997 1.867-2.846 3.01-.215.285-.425.569-.635.845-.658.849-1.041 1.75-1.106 2.604-.075.98.163 1.745.733 2.338.863.9 2.534 1.428 4.517 1.442a24.837 24.837 0 0 0 3.169-6.034c.256-.719.494-1.811.154-2.945-.262-.863-.71-1.423-1.344-1.666a2.34 2.34 0 0 0-.817-.14ZM90.594 140.821H29.4a1.167 1.167 0 1 1 0-2.333h61.194a1.167 1.167 0 0 1 0 2.333Z"/>
  <path fill="#F43F5E" d="M241.505 155.423H38.495c-5.656 0-10.262-4.601-10.262-10.262V22.834c0-5.656 4.602-10.262 10.262-10.262H241.51c5.656 0 10.262 4.601 10.262 10.262v122.332c0 5.656-4.601 10.262-10.262 10.262l-.004-.005ZM38.495 14.91c-4.372 0-7.928 3.556-7.928 7.929v122.327c0 4.373 3.556 7.929 7.928 7.929H241.51c4.373 0 7.929-3.556 7.929-7.929V22.834c0-4.373-3.556-7.929-7.929-7.929H38.495v.005ZM140 191.333c7.603 0 13.767-6.163 13.767-13.766S147.603 163.8 140 163.8s-13.767 6.164-13.767 13.767 6.164 13.766 13.767 13.766Z"/>
  <path fill="#fff" d="m141.652 177.8 2.641-2.641a1.167 1.167 0 0 0 0-1.652 1.165 1.165 0 0 0-1.652 0L140 176.148l-2.642-2.641a1.165 1.165 0 0 0-1.652 0 1.167 1.167 0 0 0 0 1.652l2.642 2.641-2.642 2.641a1.167 1.167 0 0 0 .826 1.993c.299 0 .598-.112.826-.341l2.642-2.641 2.641 2.641c.229.229.527.341.826.341a1.167 1.167 0 0 0 .826-1.993l-2.641-2.641Z"/>
</svg>