<svg xmlns="http://www.w3.org/2000/svg" width="280" height="206" fill="none">
  <path fill="#142641" d="M227.084 34.369H47.548c-5.023 0-9.095 4.058-9.095 9.063v95.658c0 5.005 4.072 9.063 9.095 9.063h179.536c5.024 0 9.096-4.058 9.096-9.063V43.432c0-5.005-4.072-9.063-9.096-9.063Z" opacity=".3"/>
  <path fill="#fff" d="M231.285 28.789H51.749c-5.024 0-9.096 4.057-9.096 9.063v95.657c0 5.006 4.072 9.063 9.096 9.063h179.536c5.023 0 9.095-4.057 9.095-9.063V37.852c0-5.005-4.072-9.063-9.095-9.063Z"/>
  <path fill="#142641" d="M231.285 143.73H51.749c-5.656 0-10.262-4.585-10.262-10.225V37.847c0-5.636 4.601-10.225 10.262-10.225h179.536c5.656 0 10.262 4.585 10.262 10.225v95.658c0 5.636-4.602 10.225-10.262 10.225ZM51.749 29.951c-4.373 0-7.929 3.544-7.929 7.901v95.657c0 4.358 3.556 7.901 7.929 7.901h179.536c4.372 0 7.928-3.543 7.928-7.901V37.847c0-4.357-3.556-7.9-7.928-7.9H51.749v.004Z"/>
  <path fill="#142641" d="M83.683 87.087c-8.82 0-15.998-7.151-15.998-15.94s7.178-15.94 15.998-15.94 15.997 7.151 15.997 15.94c0 8.788-7.177 15.94-15.997 15.94Zm0-29.551c-7.532 0-13.664 6.105-13.664 13.615s6.127 13.616 13.664 13.616c7.536 0 13.664-6.106 13.664-13.616S91.22 57.536 83.683 57.536Z"/>
  <path fill="#142641" d="M109.387 107.036c-.644 0-1.167-.52-1.167-1.162 0-10.36-10.897-18.787-24.29-18.787-13.393 0-24.29 8.426-24.29 18.787 0 .642-.523 1.162-1.167 1.162s-1.166-.52-1.166-1.162c0-11.64 11.942-21.112 26.623-21.112 14.681 0 26.623 9.473 26.623 21.112 0 .642-.522 1.162-1.166 1.162ZM210.789 63.94h-86.076a1.166 1.166 0 0 1-1.167-1.163c0-.642.523-1.163 1.167-1.163h86.076c.644 0 1.167.52 1.167 1.163 0 .641-.523 1.162-1.167 1.162Zm.177 16.39h-86.077c-.644 0-1.166-.52-1.166-1.162 0-.642.522-1.162 1.166-1.162h86.077c.644 0 1.167.52 1.167 1.162 0 .642-.523 1.163-1.167 1.163Zm-23.725 16.253h-62.333c-.644 0-1.167-.52-1.167-1.163 0-.641.523-1.162 1.167-1.162h62.333c.644 0 1.166.52 1.166 1.162 0 .642-.522 1.163-1.166 1.163Zm.028 30.533c-.472 0-.92-.289-1.092-.758-.224-.6.084-1.27.686-1.498a15.115 15.115 0 0 0 5.45-3.525c-.756-.204-1.54-.567-2.142-1.19-.714-.744-1.05-1.73-.961-2.85.065-.884.434-1.777 1.059-2.581.122-.158.243-.316.364-.479.593-.795 1.27-1.698 2.259-2.302 1.036-.632 2.249-.781 3.253-.395.928.353 1.619 1.139 1.941 2.218.28.93.238 1.953-.126 2.953-.28.781-.621 1.534-1.013 2.264a13.836 13.836 0 0 0 4.238-1.683 1.384 1.384 0 0 1 1.67.181c.448.428.556 1.112.252 1.656-.256.465-.499 1.088-.2 1.427.224.256.662.251.975.117.616-.27 1.064-.819 1.549-1.893a1.707 1.707 0 0 1 1.204-.963 1.75 1.75 0 0 1 1.517.41c1.185 1.064 2.833 1.627 4.391 1.511 1.802-.13 3.533-1.158 4.513-2.669a1.17 1.17 0 0 1 1.615-.349c.541.349.7 1.065.35 1.609-1.368 2.116-3.78 3.548-6.3 3.729a8.321 8.321 0 0 1-5.512-1.604c-.49.902-1.208 1.832-2.38 2.348-1.32.582-2.795.293-3.677-.716a2.85 2.85 0 0 1-.709-1.79 16.122 16.122 0 0 1-5.204 1.274 17.586 17.586 0 0 1-7.555 5.487 1.142 1.142 0 0 1-.406.075l-.009-.014Zm7.714-13.467c-.276 0-.593.093-.873.265-.607.367-1.092 1.018-1.605 1.706-.131.177-.262.349-.392.517-.243.311-.537.795-.579 1.334-.047.609.159.902.317 1.065.402.419 1.214.684 2.184.726a14.8 14.8 0 0 0 1.732-3.344c.186-.521.219-1.055.084-1.497-.173-.572-.448-.679-.542-.716a.908.908 0 0 0-.326-.056Zm30.454-70.696H58.473c-.644 0-1.166-.52-1.166-1.162 0-.642.522-1.163 1.166-1.163h166.964c.644 0 1.167.52 1.167 1.163 0 .641-.523 1.162-1.167 1.162Zm-116.05 81.41H58.473a1.165 1.165 0 0 1-1.166-1.163c0-.642.522-1.162 1.166-1.162h50.914c.644 0 1.166.52 1.166 1.162 0 .642-.522 1.163-1.166 1.163Z"/>
  <path fill="#10B981" d="M241.505 159.057H38.495c-5.656 0-10.262-4.585-10.262-10.225V26.938c0-5.636 4.602-10.226 10.262-10.226H241.51c5.656 0 10.262 4.585 10.262 10.226v121.898c0 5.636-4.601 10.226-10.262 10.226l-.004-.005ZM38.495 19.042c-4.372 0-7.928 3.544-7.928 7.9v121.894c0 4.357 3.556 7.901 7.928 7.901H241.51c4.373 0 7.929-3.544 7.929-7.901V26.938c0-4.357-3.556-7.9-7.929-7.9H38.495v.004ZM138.6 194.84c7.603 0 13.766-6.142 13.766-13.718s-6.163-13.718-13.766-13.718-13.767 6.142-13.767 13.718 6.164 13.718 13.767 13.718Z"/>
  <path fill="#fff" d="M144.755 177.081a1.168 1.168 0 0 0-1.652 0l-6.141 6.119-2.674-2.664a1.168 1.168 0 0 0-1.652 0 1.16 1.16 0 0 0 0 1.646l3.463 3.455c.228.228.527.34.826.34h.074c.299 0 .598-.112.826-.34l6.93-6.905a1.158 1.158 0 0 0 0-1.646v-.005Z"/>
</svg>