<svg width="18" height="18" viewBox="0 0 18 18" fill="none" xmlns="http://www.w3.org/2000/svg">
<path d="M17.6234 2.19485C18.1255 1.69275 18.1255 0.878679 17.6234 0.376577C17.1213 -0.125526 16.3073 -0.125526 15.8051 0.376577L9 7.18172L2.19485 0.376577C1.69275 -0.125526 0.878679 -0.125526 0.376577 0.376577C-0.125526 0.878679 -0.125526 1.69275 0.376577 2.19485L7.18172 9L0.376577 15.8051C-0.125526 16.3073 -0.125526 17.1213 0.376577 17.6234C0.878679 18.1255 1.69275 18.1255 2.19485 17.6234L9 10.8183L15.8051 17.6234C16.3073 18.1255 17.1213 18.1255 17.6234 17.6234C18.1255 17.1213 18.1255 16.3073 17.6234 15.8051L10.8183 9L17.6234 2.19485Z" fill="white"/>
</svg>
