<svg width="25" height="24" viewBox="0 0 25 24" fill="none" xmlns="http://www.w3.org/2000/svg">
<path d="M4.08579 7.58579C3.71071 7.96086 3.5 8.46957 3.5 9V18C3.5 18.5304 3.71071 19.0391 4.08579 19.4142C4.46086 19.7893 4.96957 20 5.5 20H19.5C20.0304 20 20.5391 19.7893 20.9142 19.4142C21.2893 19.0391 21.5 18.5304 21.5 18V9C21.5 8.46957 21.2893 7.96086 20.9142 7.58579C20.5391 7.21071 20.0304 7 19.5 7H18.57C18.2408 7.00005 17.9167 6.91884 17.6264 6.76359C17.3362 6.60834 17.0887 6.38383 16.906 6.11L16.094 4.89C15.9113 4.61617 15.6638 4.39166 15.3736 4.23641C15.0833 4.08116 14.7592 3.99995 14.43 4H10.57C10.2408 3.99995 9.91671 4.08116 9.62643 4.23641C9.33616 4.39166 9.0887 4.61617 8.906 4.89L8.094 6.11C7.9113 6.38383 7.66384 6.60834 7.37357 6.76359C7.08329 6.91884 6.75918 7.00005 6.43 7H5.5C4.96957 7 4.46086 7.21071 4.08579 7.58579Z" stroke="#FCFBFA" stroke-width="1.77778" stroke-linecap="round" stroke-linejoin="round"/>
<path d="M14.6213 15.1213C15.1839 14.5587 15.5 13.7956 15.5 13C15.5 12.2044 15.1839 11.4413 14.6213 10.8787C14.0587 10.3161 13.2956 10 12.5 10C11.7044 10 10.9413 10.3161 10.3787 10.8787C9.81607 11.4413 9.5 12.2044 9.5 13C9.5 13.7956 9.81607 14.5587 10.3787 15.1213C10.9413 15.6839 11.7044 16 12.5 16C13.2956 16 14.0587 15.6839 14.6213 15.1213Z" stroke="#FCFBFA" stroke-width="1.77778" stroke-linecap="round" stroke-linejoin="round"/>
</svg>
