<svg width="16" height="14" viewBox="0 0 16 14" fill="none" xmlns="http://www.w3.org/2000/svg">
<path fill-rule="evenodd" clip-rule="evenodd" d="M7.70679 13.707C7.51926 13.8945 7.26495 13.9998 6.99979 13.9998C6.73462 13.9998 6.48031 13.8945 6.29279 13.707L0.292786 7.70704C0.105315 7.51951 0 7.26521 0 7.00004C0 6.73488 0.105315 6.48057 0.292786 6.29304L6.29279 0.293041C6.48139 0.110883 6.73399 0.0100885 6.99619 0.0123669C7.25838 0.0146453 7.5092 0.119814 7.6946 0.305222C7.88001 0.490631 7.98518 0.741443 7.98746 1.00364C7.98974 1.26584 7.88894 1.51844 7.70679 1.70704L3.41379 6.00004H14.9998C15.265 6.00004 15.5194 6.1054 15.7069 6.29293C15.8944 6.48047 15.9998 6.73482 15.9998 7.00004C15.9998 7.26526 15.8944 7.51961 15.7069 7.70715C15.5194 7.89468 15.265 8.00004 14.9998 8.00004H3.41379L7.70679 12.293C7.89426 12.4806 7.99957 12.7349 7.99957 13C7.99957 13.2652 7.89426 13.5195 7.70679 13.707Z" fill="#0062F2"/>
</svg>
