<svg xmlns="http://www.w3.org/2000/svg" width="96" height="60" fill="none" viewBox="0 0 96 60">
  <path fill="#fff" fill-rule="evenodd" d="M0 6a6 6 0 0 1 6-6h84a6 6 0 0 1 6 6v48a6 6 0 0 1-6 6H6a6 6 0 0 1-6-6V6Zm10.2 7.8c0-1.325 1.11-2.4 2.48-2.4h69.44c1.37 0 2.48 1.075 2.48 2.4s-1.11 2.4-2.48 2.4H12.68c-1.37 0-2.48-1.074-2.48-2.4Zm70.5 35.4a3.9 3.9 0 1 0 0-7.8 3.9 3.9 0 0 0 0 7.8Zm-70.5-3c0-1.326 1.098-2.4 2.451-2.4H34.15c1.353 0 2.451 1.075 2.451 2.4s-1.098 2.4-2.451 2.4h-21.5c-1.354 0-2.451-1.075-2.451-2.4Zm2.474-13.8c-1.366 0-2.474 1.075-2.474 2.4 0 1.326 1.108 2.4 2.474 2.4h30.452c1.366 0 2.474-1.075 2.474-2.4s-1.108-2.4-2.474-2.4H12.674Z" clip-rule="evenodd"/>
</svg>