<svg width="100" height="100" viewBox="0 0 100 100" fill="none" xmlns="http://www.w3.org/2000/svg">
<path opacity="0.75" fill-rule="evenodd" clip-rule="evenodd" d="M67.122 11.9983C56.2214 7.15355 43.7786 7.15355 32.878 11.9983L29.4808 4.35448C42.5442 -1.45149 57.4558 -1.45149 70.5193 4.35448L67.122 11.9983ZM11.9983 32.878C7.15355 43.7786 7.15355 56.2214 11.9983 67.122L4.35448 70.5193C-1.45149 57.4558 -1.45149 42.5442 4.35448 29.4808L11.9983 32.878ZM88.0017 67.122C92.8465 56.2214 92.8465 43.7786 88.0017 32.878L95.6455 29.4808C101.452 42.5442 101.452 57.4558 95.6455 70.5193L88.0017 67.122ZM32.878 88.0017C43.7786 92.8465 56.2214 92.8465 67.122 88.0017L70.5193 95.6455C57.4558 101.452 42.5442 101.452 29.4808 95.6455L32.878 88.0017Z" fill="white"/>
<circle cx="50" cy="50" r="4" fill="white"/>
</svg>
