<svg width="96" height="60" viewBox="0 0 96 60" fill="none" xmlns="http://www.w3.org/2000/svg">
<path fill-rule="evenodd" clip-rule="evenodd" d="M6 0C2.68629 0 0 2.68629 0 6V54C0 57.3137 2.68629 60 6 60H90C93.3137 60 96 57.3137 96 54V6C96 2.68629 93.3137 0 90 0H6ZM48.6713 10.8C47.3064 10.8 46.2 11.8745 46.2 13.2C46.2 14.5255 47.3064 15.6 48.6713 15.6H82.1287C83.4936 15.6 84.6 14.5255 84.6 13.2C84.6 11.8745 83.4936 10.8 82.1287 10.8H48.6713ZM72 49.2C72 47.8745 73.0582 46.8 74.3636 46.8H81.6364C82.9418 46.8 84 47.8745 84 49.2C84 50.5255 82.9418 51.6 81.6364 51.6H74.3636C73.0582 51.6 72 50.5255 72 49.2ZM48.7019 33.6C47.3201 33.6 46.2 34.6745 46.2 36C46.2 37.3255 47.3201 38.4 48.7019 38.4H64.0981C65.4799 38.4 66.6 37.3255 66.6 36C66.6 34.6745 65.4799 33.6 64.0981 33.6H48.7019ZM46.2 24.6C46.2 23.2745 47.3064 22.2 48.6713 22.2H82.1287C83.4936 22.2 84.6 23.2745 84.6 24.6C84.6 25.9255 83.4936 27 82.1287 27H48.6713C47.3064 27 46.2 25.9255 46.2 24.6ZM13.2648 10.8C11.5721 10.8 10.2 12.2074 10.2 13.9436V37.9683C10.2 39.0854 10.769 40.0655 11.6206 40.6215C11.8859 40.7947 12.2103 40.8447 12.5135 40.759C12.8168 40.6734 13.0705 40.4602 13.212 40.1721C14.597 37.3525 16.8899 35.1509 19.6495 34.0101C20.0235 33.8555 20.2867 33.5056 20.3375 33.0954C20.3884 32.6852 20.219 32.2788 19.8948 32.0331C18.1723 30.7281 17.0558 28.6264 17.0558 26.2539C17.0558 22.2915 20.1701 19.0892 24 19.0892C27.8299 19.0892 30.9442 22.2915 30.9442 26.2539C30.9442 28.6264 29.8277 30.7281 28.1052 32.0331C27.781 32.2788 27.6116 32.6852 27.6625 33.0954C27.7133 33.5056 27.9765 33.8555 28.3505 34.0101C31.1101 35.1509 33.403 37.3525 34.788 40.1721C34.9295 40.4602 35.1832 40.6734 35.4864 40.759C35.7897 40.8447 36.1141 40.7947 36.3794 40.6215C37.231 40.0655 37.8 39.0854 37.8 37.9683V13.9436C37.8 12.2074 36.4279 10.8 34.7352 10.8H13.2648Z" fill="white"/>
</svg>
