<svg width="96" height="96" viewBox="0 0 96 96" fill="none" xmlns="http://www.w3.org/2000/svg">
<rect width="96" height="96" rx="48" fill="white"/>
<path d="M44.972 57.46C44.7094 57.4605 44.4494 57.4092 44.2067 57.309C43.9641 57.2088 43.7436 57.0616 43.558 56.876L35.074 48.39C34.8828 48.2056 34.7303 47.985 34.6253 47.7411C34.5203 47.4972 34.465 47.2348 34.4625 46.9692C34.46 46.7037 34.5104 46.4403 34.6108 46.1944C34.7112 45.9485 34.8595 45.7251 35.0472 45.5372C35.2348 45.3493 35.458 45.2006 35.7038 45.0999C35.9495 44.9992 36.2128 44.9484 36.4784 44.9505C36.7439 44.9526 37.0064 45.0076 37.2505 45.1122C37.4945 45.2169 37.7153 45.3691 37.9 45.56L44.97 52.63L57.7 39.904C58.075 39.5287 58.5837 39.3178 59.1143 39.3176C59.6448 39.3174 60.1537 39.528 60.529 39.903C60.9043 40.278 61.1152 40.7867 61.1154 41.3173C61.1156 41.8478 60.905 42.3567 60.53 42.732L46.386 56.876C46.2003 57.0616 45.9799 57.2088 45.7372 57.309C45.4946 57.4092 45.2345 57.4605 44.972 57.46Z" fill="black"/>
</svg>
