<svg width="101" height="100" viewBox="0 0 101 100" fill="none" xmlns="http://www.w3.org/2000/svg">
<path opacity="0.3" fill-rule="evenodd" clip-rule="evenodd" d="M50.3013 7.69231C26.9354 7.69231 7.99358 26.6341 7.99358 50C7.99358 73.3659 26.9354 92.3077 50.3013 92.3077C73.6672 92.3077 92.609 73.3659 92.609 50C92.609 26.6341 73.6672 7.69231 50.3013 7.69231ZM0.30127 50C0.30127 22.3858 22.687 0 50.3013 0C77.9155 0 100.301 22.3858 100.301 50C100.301 77.6142 77.9155 100 50.3013 100C22.687 100 0.30127 77.6142 0.30127 50Z" fill="white"/>
<circle cx="50.3" cy="50" r="4" fill="white"/>
<path fill-rule="evenodd" clip-rule="evenodd" d="M29.1475 13.3603C8.91201 25.0433 1.97884 50.9183 13.6618 71.1537L7.00005 74.9999C-6.80707 51.0852 1.38668 20.5057 25.3013 6.69861L29.1475 13.3603Z" fill="white"/>
</svg>
