<svg xmlns="http://www.w3.org/2000/svg" width="280" height="197" fill="none" viewBox="0 0 280 197">
  <path fill="#142641" d="M225.741 28.57H46.205a9.095 9.095 0 0 0-9.096 9.095v95.998a9.095 9.095 0 0 0 9.096 9.095H225.74a9.095 9.095 0 0 0 9.095-9.095V37.665a9.095 9.095 0 0 0-9.095-9.096Z" opacity=".3"/>
  <path fill="#fff" d="M231.098 23.8H51.562a9.095 9.095 0 0 0-9.095 9.095v95.998a9.095 9.095 0 0 0 9.095 9.096h179.536a9.095 9.095 0 0 0 9.095-9.096V32.895a9.095 9.095 0 0 0-9.095-9.095Z"/>
  <g fill="#142641" opacity=".4">
    <path d="M229.94 138.32H50.4c-5.656 0-10.262-4.601-10.262-10.262V32.06c0-5.656 4.601-10.262 10.262-10.262h179.54c5.656 0 10.262 4.601 10.262 10.262v95.998c0 5.656-4.601 10.262-10.262 10.262ZM50.4 24.136c-4.373 0-7.929 3.556-7.929 7.929v95.998c0 4.372 3.556 7.928 7.929 7.928h179.54c4.373 0 7.929-3.556 7.929-7.928V32.06c0-4.373-3.556-7.929-7.929-7.929H50.4v.005Z"/>
    <path d="M82.333 81.475c-8.82 0-15.997-7.177-15.997-15.997S73.513 49.48 82.333 49.48s15.998 7.177 15.998 15.997-7.178 15.997-15.998 15.997Zm0-29.656c-7.532 0-13.664 6.127-13.664 13.664 0 7.536 6.128 13.664 13.664 13.664 7.537 0 13.664-6.128 13.664-13.664 0-7.537-6.127-13.664-13.664-13.664Z"/>
    <path d="M108.043 101.495a1.167 1.167 0 0 1-1.167-1.166c0-10.398-10.896-18.854-24.29-18.854-13.393 0-24.29 8.456-24.29 18.854a1.166 1.166 0 0 1-2.333 0c0-11.681 11.942-21.187 26.623-21.187 14.682 0 26.624 9.506 26.624 21.187 0 .644-.523 1.166-1.167 1.166Zm101.397-43.25h-86.077a1.167 1.167 0 0 1 0-2.334h86.077a1.166 1.166 0 0 1 0 2.334Zm.182 16.45h-86.076a1.167 1.167 0 0 1 0-2.334h86.076a1.167 1.167 0 0 1 0 2.334Zm-23.725 16.31h-62.338a1.166 1.166 0 0 1 0-2.334h62.333a1.167 1.167 0 0 1 0 2.334h.005Zm.023 30.641c-.471 0-.919-.289-1.092-.761a1.172 1.172 0 0 1 .686-1.502 15.146 15.146 0 0 0 5.451-3.538c-.756-.205-1.54-.569-2.142-1.194-.714-.747-1.05-1.736-.962-2.861.066-.887.434-1.783 1.06-2.59.121-.159.242-.317.364-.481.592-.798 1.269-1.703 2.258-2.31 1.036-.634 2.25-.779 3.253-.396.929.354 1.619 1.143 1.941 2.226.28.933.238 1.96-.126 2.963-.28.784-.62 1.54-1.012 2.273a13.806 13.806 0 0 0 4.237-1.69 1.376 1.376 0 0 1 1.671.182c.448.43.555 1.116.252 1.662-.257.466-.5 1.092-.201 1.432.224.257.663.252.975.117.616-.271 1.064-.821 1.55-1.899a1.704 1.704 0 0 1 1.204-.966 1.75 1.75 0 0 1 1.516.41c1.186 1.069 2.833 1.634 4.392 1.517 1.801-.131 3.532-1.162 4.512-2.679a1.169 1.169 0 0 1 1.965 1.265c-1.367 2.123-3.78 3.561-6.3 3.743a8.301 8.301 0 0 1-5.511-1.61c-.49.905-1.209 1.838-2.38 2.356-1.321.584-2.796.294-3.678-.718a2.876 2.876 0 0 1-.709-1.797 16.072 16.072 0 0 1-5.203 1.279c-1.96 2.459-4.583 4.396-7.556 5.506-.135.052-.27.075-.406.075l-.009-.014Zm7.714-13.515a1.73 1.73 0 0 0-.873.266c-.606.369-1.092 1.022-1.605 1.713a25.9 25.9 0 0 1-.392.518c-.243.313-.537.798-.579 1.339-.046.612.159.906.318 1.069.401.42 1.213.686 2.184.728a14.833 14.833 0 0 0 1.731-3.355c.187-.523.219-1.06.084-1.503-.173-.574-.448-.681-.541-.719a.931.931 0 0 0-.327-.056Zm30.459-70.947H57.125a1.167 1.167 0 0 1 0-2.333h166.968a1.167 1.167 0 0 1 0 2.333Zm-116.05 81.699H57.125a1.167 1.167 0 1 1 0-2.333h50.913a1.168 1.168 0 0 1 0 2.333h.005Z"/>
  </g>
  <g fill="#142641" opacity=".3">
    <path d="M231.29 136.183 51.8 140.429c-5.655.136-10.364-4.358-10.5-10.014L39.038 34.44c-.135-5.656 4.359-10.365 10.015-10.5l179.489-4.247c5.656-.135 10.365 4.36 10.5 10.015l2.268 95.97c.135 5.656-4.358 10.365-10.015 10.5l-.004.005ZM49.108 26.273c-4.368.103-7.84 3.743-7.737 8.111l2.267 95.97c.103 4.368 3.743 7.84 8.111 7.737l179.489-4.246c4.368-.103 7.84-3.743 7.738-8.111l-2.268-95.97c-.103-4.368-3.743-7.84-8.111-7.737l-179.49 4.246Z"/>
    <path d="M82.386 82.843c-8.82.21-16.16-6.795-16.37-15.615-.21-8.82 6.794-16.16 15.614-16.37 8.82-.21 16.16 6.794 16.37 15.614.21 8.82-6.794 16.16-15.614 16.37Zm-.7-29.652c-7.532.177-13.515 6.45-13.337 13.981.177 7.532 6.449 13.515 13.981 13.337 7.532-.177 13.515-6.449 13.337-13.981-.177-7.532-6.449-13.515-13.981-13.337Z"/>
    <path d="M108.557 102.247a1.168 1.168 0 0 1-1.195-1.139c-.247-10.392-11.34-18.592-24.729-18.275-13.388.318-24.084 9.03-23.837 19.423a1.168 1.168 0 0 1-2.333.056C56.187 90.632 67.9 80.85 82.577 80.5c14.677-.345 26.843 8.871 27.118 20.552a1.167 1.167 0 0 1-1.138 1.195Zm100.351-45.636-86.053 2.035a1.168 1.168 0 0 1-.056-2.333l86.053-2.035a1.168 1.168 0 0 1 .056 2.333Zm.57 16.441-86.054 2.035a1.167 1.167 0 0 1-.056-2.334l86.054-2.034a1.167 1.167 0 0 1 .056 2.333Zm-23.338 16.87-62.314 1.475a1.168 1.168 0 0 1-.056-2.334l62.314-1.474a1.167 1.167 0 0 1 .056 2.333Zm.751 30.632a1.168 1.168 0 0 1-.462-2.249 15.158 15.158 0 0 0 5.367-3.668c-.761-.187-1.554-.532-2.17-1.148-.733-.728-1.087-1.708-1.031-2.838.046-.886.392-1.792.998-2.613.117-.159.234-.322.35-.49.574-.812 1.228-1.736 2.203-2.361 1.017-.658 2.231-.836 3.243-.476.938.331 1.648 1.106 1.998 2.179.303.929.284 1.951-.056 2.968a16.529 16.529 0 0 1-.962 2.296 13.78 13.78 0 0 0 4.196-1.787 1.383 1.383 0 0 1 1.675.14c.462.42.579 1.101.294 1.656-.243.472-.471 1.102-.168 1.433.233.252.667.238.98.093.607-.284 1.045-.849 1.507-1.936a1.71 1.71 0 0 1 1.181-.994 1.742 1.742 0 0 1 1.526.373c1.209 1.036 2.87 1.568 4.424 1.414 1.801-.177 3.505-1.241 4.447-2.786a1.168 1.168 0 0 1 1.993 1.218c-1.316 2.156-3.696 3.649-6.211 3.892a8.299 8.299 0 0 1-5.549-1.479c-.471.914-1.162 1.866-2.324 2.412-1.307.612-2.791.36-3.691-.63a2.879 2.879 0 0 1-.756-1.778 15.96 15.96 0 0 1-5.171 1.4c-1.904 2.506-4.475 4.504-7.42 5.684-.135.052-.271.08-.406.084l-.005-.009Zm7.392-13.692a1.723 1.723 0 0 0-.868.285c-.597.382-1.064 1.045-1.563 1.75-.126.177-.252.354-.378.527-.233.317-.518.807-.546 1.349-.033.611.182.9.345 1.064.411.41 1.232.658 2.203.676a14.515 14.515 0 0 0 1.647-3.397c.178-.527.196-1.064.052-1.507-.187-.574-.467-.672-.56-.705a.943.943 0 0 0-.332-.047v.005Zm28.775-71.647L56.136 39.163a1.167 1.167 0 0 1-.056-2.334l166.922-3.948a1.168 1.168 0 0 1 .056 2.334ZM108.967 119.63l-50.899 1.204a1.168 1.168 0 0 1-.056-2.333l50.899-1.204a1.167 1.167 0 1 1 .056 2.333Z"/>
  </g>
  <g fill="#142641" opacity=".2">
    <path d="m232.764 133.714-179.308 9.063c-5.651.284-10.481-4.079-10.766-9.73l-4.844-95.872c-.284-5.652 4.079-10.482 9.73-10.766l179.307-9.063c5.652-.285 10.482 4.079 10.767 9.73l4.848 95.877c.285 5.651-4.078 10.481-9.73 10.766l-.004-.005ZM47.693 28.737c-4.368.22-7.737 3.953-7.518 8.316l4.849 95.877c.219 4.363 3.952 7.737 8.316 7.518l179.307-9.063c4.368-.219 7.737-3.952 7.518-8.316l-4.849-95.876c-.219-4.364-3.953-7.738-8.316-7.518L47.693 28.737Z"/>
    <path d="M82.483 84.392c-8.811.443-16.339-6.36-16.782-15.167-.443-8.806 6.36-16.338 15.167-16.78 8.806-.444 16.338 6.36 16.781 15.166.444 8.81-6.36 16.338-15.166 16.781Zm-1.499-29.62c-7.522.379-13.337 6.814-12.954 14.337.382 7.522 6.813 13.337 14.336 12.954 7.522-.382 13.337-6.813 12.954-14.336-.382-7.522-6.813-13.337-14.335-12.954Z"/>
    <path d="M109.162 103.091a1.165 1.165 0 0 1-1.223-1.106c-.522-10.383-11.834-18.279-25.21-17.602-13.374.676-23.832 9.674-23.304 20.057a1.165 1.165 0 1 1-2.33.117c-.587-11.667 10.86-21.761 25.523-22.503 14.663-.742 27.071 8.148 27.659 19.815a1.163 1.163 0 0 1-1.106 1.222h-.009Zm99.087-48.318-85.969 4.344a1.165 1.165 0 1 1-.117-2.328l85.97-4.345a1.164 1.164 0 0 1 1.222 1.106 1.164 1.164 0 0 1-1.106 1.223Zm1.013 16.422-85.969 4.344a1.165 1.165 0 1 1-.117-2.328l85.969-4.345a1.165 1.165 0 1 1 .117 2.329Zm-22.871 17.49-62.254 3.146a1.164 1.164 0 0 1-1.222-1.106 1.164 1.164 0 0 1 1.106-1.223l62.253-3.145a1.165 1.165 0 1 1 .117 2.328Zm1.573 30.6a1.17 1.17 0 0 1-.523-2.24 15.15 15.15 0 0 0 5.264-3.808c-.77-.168-1.568-.49-2.198-1.088-.751-.709-1.134-1.68-1.106-2.809.023-.887.345-1.801.929-2.641.112-.164.224-.332.34-.5.556-.826 1.181-1.764 2.138-2.422 1.003-.686 2.207-.896 3.229-.564.947.308 1.675 1.064 2.053 2.123.327.919.336 1.946.024 2.968a16.275 16.275 0 0 1-.901 2.319 13.722 13.722 0 0 0 4.144-1.899 1.378 1.378 0 0 1 2.016 1.745c-.233.476-.443 1.116-.131 1.438.238.247.672.219.98.065.602-.303 1.022-.877 1.452-1.974.2-.504.63-.891 1.157-1.027a1.738 1.738 0 0 1 1.535.336c1.237 1.004 2.912 1.489 4.462 1.298a5.98 5.98 0 0 0 4.368-2.908 1.163 1.163 0 0 1 1.591-.429c.56.322.751 1.036.429 1.591-1.26 2.189-3.598 3.748-6.104 4.06a8.286 8.286 0 0 1-5.586-1.33c-.443.929-1.115 1.895-2.258 2.474-1.288.648-2.777.434-3.71-.532a2.885 2.885 0 0 1-.803-1.76 15.963 15.963 0 0 1-5.133 1.54c-1.834 2.553-4.354 4.625-7.266 5.88a1.128 1.128 0 0 1-.402.094h.01Zm7.023-13.888a1.718 1.718 0 0 0-.859.308c-.588.401-1.036 1.078-1.516 1.792-.122.182-.243.364-.364.536-.224.322-.495.822-.509 1.363-.014.611.205.896.374 1.055.424.401 1.246.625 2.216.616a14.758 14.758 0 0 0 1.559-3.44c.163-.532.163-1.068.009-1.507-.201-.565-.485-.658-.579-.691a.946.946 0 0 0-.331-.037v.005Zm26.833-72.394L55.066 41.43a1.165 1.165 0 1 1-.117-2.329l166.754-8.428a1.165 1.165 0 1 1 .117 2.329Zm-111.781 87.453-50.848 2.571a1.164 1.164 0 1 1-.117-2.328l50.848-2.572a1.165 1.165 0 1 1 .117 2.329Z"/>
  </g>
  <g fill="#142641" opacity=".2">
    <path d="m226.772 142.935-179.294-9.384c-5.651-.294-10.005-5.134-9.711-10.785l5.021-95.867c.294-5.652 5.134-10.006 10.785-9.712l179.293 9.385c5.652.294 10.006 5.133 9.712 10.785l-5.017 95.867c-.294 5.651-5.133 10.005-10.785 9.711h-.004ZM53.447 19.521c-4.363-.23-8.101 3.136-8.33 7.504L40.1 122.892c-.228 4.363 3.136 8.101 7.504 8.33l179.294 9.385c4.363.228 8.101-3.136 8.33-7.504l5.016-95.868c.229-4.363-3.136-8.101-7.504-8.33L53.447 19.521Z"/>
    <path d="M82.343 78.451c-8.806-.462-15.601-8.003-15.14-16.809.463-8.806 8.004-15.6 16.81-15.139 8.806.462 15.6 8.004 15.139 16.81-.462 8.806-8.004 15.6-16.81 15.138Zm1.549-29.619c-7.523-.392-13.963 5.409-14.36 12.931-.396 7.523 5.41 13.963 12.932 14.36 7.523.392 13.963-5.409 14.36-12.932.391-7.522-5.41-13.962-12.932-14.359Z"/>
    <path d="M106.964 99.787a1.17 1.17 0 0 1-1.106-1.227c.542-10.383-9.898-19.395-23.272-20.1-13.375-.704-24.701 7.178-25.242 17.557a1.169 1.169 0 0 1-2.334-.122c.612-11.666 13.034-20.533 27.697-19.768 14.658.766 26.091 10.883 25.48 22.55a1.169 1.169 0 0 1-1.227 1.106l.004.004Zm103.521-37.893-85.96-4.499a1.168 1.168 0 0 1 .121-2.333l85.96 4.499a1.169 1.169 0 0 1-.121 2.333Zm-.676 16.436-85.96-4.499a1.168 1.168 0 0 1 .121-2.333l85.96 4.499a1.168 1.168 0 0 1-.121 2.333Zm-24.548 15.05-62.248-3.257a1.168 1.168 0 0 1 .121-2.334l62.249 3.258a1.17 1.17 0 0 1-.122 2.333Zm-1.577 30.599a1.167 1.167 0 0 1-.289-2.277 15.182 15.182 0 0 0 5.628-3.248c-.747-.247-1.507-.649-2.077-1.307-.676-.784-.956-1.787-.812-2.907.112-.882.528-1.755 1.195-2.529.131-.15.257-.304.387-.462.635-.766 1.354-1.634 2.376-2.189 1.064-.579 2.291-.663 3.271-.229.91.402 1.559 1.228 1.825 2.324.233.948.135 1.97-.28 2.954-.322.766-.7 1.508-1.134 2.217a13.706 13.706 0 0 0 4.316-1.465 1.381 1.381 0 0 1 1.657.266c.425.452.495 1.143.168 1.67-.28.453-.555 1.064-.275 1.419.21.271.644.289.97.168.63-.238 1.106-.765 1.648-1.815a1.726 1.726 0 0 1 1.255-.906 1.744 1.744 0 0 1 1.493.49c1.13 1.13 2.744 1.778 4.303 1.746 1.806-.038 3.589-.976 4.643-2.441a1.17 1.17 0 0 1 1.629-.266 1.17 1.17 0 0 1 .266 1.629c-1.475 2.048-3.962 3.355-6.487 3.411a8.283 8.283 0 0 1-5.418-1.899c-.536.877-1.302 1.773-2.501 2.23-1.349.514-2.809.15-3.635-.905a2.883 2.883 0 0 1-.616-1.834 15.98 15.98 0 0 1-5.264 1.003c-2.086 2.352-4.807 4.154-7.831 5.106-.135.042-.275.06-.411.051v-.005Zm8.41-13.094a1.716 1.716 0 0 0-.887.219c-.625.336-1.143.961-1.689 1.624-.14.168-.28.336-.42.499-.257.299-.579.766-.649 1.307-.079.607.112.91.261 1.087.383.439 1.176.747 2.142.845a14.625 14.625 0 0 0 1.904-3.262c.215-.513.276-1.045.164-1.498-.145-.583-.416-.705-.504-.742a.897.897 0 0 0-.327-.07l.005-.009Zm34.127-69.254-166.74-8.726a1.169 1.169 0 0 1 .12-2.334l166.741 8.727a1.168 1.168 0 0 1-.121 2.333Zm-120.167 75.521-50.843-2.66a1.169 1.169 0 0 1 .121-2.333l50.844 2.66a1.168 1.168 0 1 1-.122 2.333Z"/>
  </g>
  <g fill="#142641" opacity=".3">
    <path d="m228.447 140.56-179.48-4.508c-5.656-.14-10.14-4.858-10-10.514l2.412-95.97c.14-5.656 4.858-10.14 10.514-10l179.48 4.507c5.656.14 10.14 4.858 10 10.514l-2.412 95.97c-.14 5.656-4.858 10.141-10.514 10.001ZM51.837 21.896c-4.368-.112-8.013 3.355-8.125 7.728l-2.413 95.97c-.112 4.368 3.356 8.013 7.728 8.125l179.48 4.508c4.368.112 8.013-3.356 8.125-7.728l2.413-95.97c.112-4.368-3.356-8.013-7.728-8.125l-179.48-4.508Z"/>
    <path d="M82.32 80.024c-8.815-.22-15.81-7.574-15.591-16.394.219-8.815 7.574-15.81 16.394-15.591 8.815.219 15.81 7.574 15.591 16.394-.22 8.82-7.574 15.81-16.394 15.59Zm.747-29.647c-7.532-.192-13.814 5.782-14 13.314-.192 7.532 5.782 13.813 13.314 14 7.532.186 13.813-5.782 14-13.314.191-7.532-5.782-13.814-13.314-14Z"/>
    <path d="M107.51 100.683a1.167 1.167 0 0 1-1.139-1.194c.262-10.393-10.42-19.12-23.809-19.456-13.389-.336-24.495 7.845-24.757 18.238a1.167 1.167 0 0 1-2.333-.056c.294-11.681 12.474-20.88 27.146-20.51 14.677.368 26.376 10.168 26.082 21.849a1.168 1.168 0 0 1-1.195 1.139l.005-.01ZM209.967 59.99l-86.049-2.16a1.167 1.167 0 0 1 .056-2.334l86.049 2.16a1.168 1.168 0 0 1-.056 2.334Zm-.233 16.45-86.049-2.16a1.168 1.168 0 0 1 .056-2.334l86.049 2.16a1.167 1.167 0 0 1-.056 2.334Zm-24.127 15.713-62.314-1.568a1.167 1.167 0 0 1 .056-2.334l62.314 1.568a1.168 1.168 0 0 1-.056 2.334Zm-.747 30.627a1.17 1.17 0 0 1-.35-2.273 15.158 15.158 0 0 0 5.54-3.402c-.752-.224-1.526-.606-2.11-1.25-.695-.766-1.003-1.76-.891-2.884.089-.882.481-1.769 1.125-2.562.126-.154.252-.313.378-.472.616-.784 1.311-1.67 2.314-2.254 1.05-.606 2.268-.723 3.262-.317.919.378 1.592 1.185 1.886 2.273.256.942.186 1.964-.201 2.963a16.395 16.395 0 0 1-1.074 2.245 13.791 13.791 0 0 0 4.28-1.582 1.376 1.376 0 0 1 1.876 1.89c-.266.457-.527 1.078-.238 1.423.219.266.653.271.971.14.62-.257 1.082-.793 1.6-1.862.238-.49.696-.84 1.232-.938a1.741 1.741 0 0 1 1.503.448c1.157 1.097 2.791 1.703 4.349 1.629 1.806-.089 3.561-1.069 4.578-2.567a1.165 1.165 0 1 1 1.927 1.311c-1.418 2.091-3.868 3.463-6.393 3.584-1.955.098-3.91-.536-5.469-1.75-.513.892-1.256 1.806-2.441 2.296-1.335.551-2.804.224-3.658-.807a2.884 2.884 0 0 1-.668-1.815 16.012 16.012 0 0 1-5.236 1.148c-2.02 2.408-4.69 4.279-7.691 5.315a1.246 1.246 0 0 1-.41.065l.009.005Zm8.05-13.319a1.788 1.788 0 0 0-.882.243c-.616.355-1.115.994-1.647 1.671-.136.172-.271.345-.406.508-.247.304-.555.784-.611 1.321-.061.611.135.91.294 1.078.392.429 1.194.714 2.165.784a14.857 14.857 0 0 0 1.815-3.313c.201-.518.248-1.055.122-1.503-.159-.579-.435-.695-.523-.728a.894.894 0 0 0-.327-.061Zm32.233-70.154L58.231 35.112a1.167 1.167 0 0 1 .056-2.333l166.912 4.195a1.168 1.168 0 0 1-.056 2.333Zm-118.067 78.755-50.899-1.279a1.167 1.167 0 1 1 .056-2.333l50.899 1.279a1.167 1.167 0 1 1-.056 2.333Z"/>
  </g>
  <path fill="#F43F5E" d="M239.577 154.285H36.563c-5.656 0-10.262-4.602-10.262-10.262V21.695c0-5.656 4.601-10.262 10.262-10.262h203.014c5.656 0 10.262 4.602 10.262 10.262v122.332c0 5.656-4.602 10.262-10.262 10.262v-.004ZM36.563 13.771c-4.373 0-7.929 3.556-7.929 7.929v122.327c0 4.373 3.556 7.929 7.929 7.929h203.014c4.372 0 7.928-3.556 7.928-7.929V21.695c0-4.372-3.556-7.928-7.928-7.928H36.563v.004Zm101.509 176.424c7.603 0 13.767-6.164 13.767-13.767s-6.164-13.767-13.767-13.767-13.766 6.164-13.766 13.767 6.163 13.767 13.766 13.767Z"/>
  <path fill="#fff" d="m139.72 176.661 2.641-2.641a1.165 1.165 0 0 0 0-1.652 1.167 1.167 0 0 0-1.652 0l-2.641 2.641-2.641-2.641a1.167 1.167 0 0 0-1.652 0 1.165 1.165 0 0 0 0 1.652l2.641 2.641-2.641 2.642a1.165 1.165 0 0 0 .826 1.992c.298 0 .597-.112.826-.34l2.641-2.642 2.641 2.642c.229.228.528.34.826.34a1.165 1.165 0 0 0 .826-1.992l-2.641-2.642Z"/>
</svg>