<svg width="20" height="20" viewBox="0 0 20 20" fill="none" xmlns="http://www.w3.org/2000/svg">
<g id="c / camera">
<path id="Vector (Stroke)" fill-rule="evenodd" clip-rule="evenodd" d="M6.32157 2.98816C6.63413 2.6756 7.05805 2.5 7.50008 2.5H12.5001C12.9421 2.5 13.366 2.6756 13.6786 2.98816C13.9912 3.30072 14.1667 3.72464 14.1667 4.16667C14.1667 4.38768 14.2545 4.59964 14.4108 4.75592C14.5671 4.9122 14.7791 5 15.0001 5H15.8334C16.4965 5 17.1323 5.26339 17.6012 5.73223C18.07 6.20107 18.3334 6.83696 18.3334 7.5V15C18.3334 15.663 18.07 16.2989 17.6012 16.7678C17.1323 17.2366 16.4965 17.5 15.8334 17.5H4.16675C3.50371 17.5 2.86782 17.2366 2.39898 16.7678C1.93014 16.2989 1.66675 15.663 1.66675 15V7.5C1.66675 6.83696 1.93014 6.20107 2.39898 5.73223C2.86782 5.26339 3.50371 5 4.16675 5H5.00008C5.2211 5 5.43306 4.9122 5.58934 4.75592C5.74562 4.59964 5.83342 4.38768 5.83342 4.16667C5.83342 3.72464 6.00901 3.30072 6.32157 2.98816ZM4.16675 6.66667C3.94573 6.66667 3.73377 6.75446 3.57749 6.91074C3.42121 7.06702 3.33341 7.27899 3.33341 7.5V15C3.33341 15.221 3.42121 15.433 3.57749 15.5893C3.73377 15.7455 3.94573 15.8333 4.16675 15.8333H15.8334C16.0544 15.8333 16.2664 15.7455 16.4227 15.5893C16.579 15.433 16.6667 15.221 16.6667 15V7.5C16.6667 7.27899 16.579 7.06702 16.4227 6.91074C16.2664 6.75446 16.0544 6.66667 15.8334 6.66667H15.0001C14.337 6.66667 13.7012 6.40327 13.2323 5.93443C12.7635 5.46559 12.5001 4.82971 12.5001 4.16667L7.50008 4.16667C7.50008 4.82971 7.23669 5.46559 6.76785 5.93443C6.29901 6.40327 5.66312 6.66667 5.00008 6.66667H4.16675Z" fill="white"/>
<path id="Vector (Stroke)_2" fill-rule="evenodd" clip-rule="evenodd" d="M10.0001 9.16667C9.07961 9.16667 8.33341 9.91286 8.33341 10.8333C8.33341 11.7538 9.07961 12.5 10.0001 12.5C10.9206 12.5 11.6667 11.7538 11.6667 10.8333C11.6667 9.91286 10.9206 9.16667 10.0001 9.16667ZM6.66675 10.8333C6.66675 8.99238 8.15913 7.5 10.0001 7.5C11.841 7.5 13.3334 8.99238 13.3334 10.8333C13.3334 12.6743 11.841 14.1667 10.0001 14.1667C8.15913 14.1667 6.66675 12.6743 6.66675 10.8333Z" fill="white"/>
</g>
</svg>
