<svg xmlns="http://www.w3.org/2000/svg" width="115" height="53" fill="none" viewBox="0 0 115 53">
  <path fill="#fff" d="M35.088 19.572c1.314 0 2.178-.891 2.178-2.16 0-1.287-.855-2.151-2.178-2.151h-2.601v6.579h1.152v-2.268h1.449Zm-.225-3.285c.765 0 1.197.396 1.197 1.116 0 .72-.423 1.143-1.215 1.143h-1.206v-2.259h1.224Zm2.909 3.321c0 1.386 1 2.34 2.376 2.34 1.377 0 2.376-.954 2.376-2.34s-.999-2.34-2.376-2.34c-1.377 0-2.376.954-2.376 2.34Zm1.098 0c0-.81.522-1.359 1.278-1.359s1.278.549 1.278 1.359c0 .81-.522 1.359-1.278 1.359s-1.278-.549-1.278-1.359Zm5.466 2.232h1.07l.613-1.908c.225-.729.306-1.044.35-1.251.037.225.136.648.316 1.233l.612 1.926h1.026l1.539-4.446H48.7l-.594 1.908c-.081.279-.225.81-.297 1.143a16.122 16.122 0 0 0-.288-1.143l-.594-1.908h-1.116l-.612 1.908c-.144.441-.225.72-.306 1.152a14.615 14.615 0 0 0-.27-1.152l-.585-1.908h-1.143l1.44 4.446Zm8.14.117c1.16 0 1.97-.585 2.16-1.557h-1.017c-.126.423-.522.657-1.125.657-.73 0-1.143-.396-1.224-1.179l3.348-.009v-.333c0-1.386-.846-2.277-2.178-2.277-1.305 0-2.214.963-2.214 2.358 0 1.377.927 2.34 2.25 2.34Zm-.027-3.798c.657 0 1.08.405 1.08 1.017h-2.232c.108-.666.504-1.017 1.152-1.017Zm6.018-.783a1.948 1.948 0 0 0-.486-.063c-.594 0-1.017.297-1.206.738l-.063-.648h-1.035v4.437h1.098v-2.16c0-.864.495-1.287 1.287-1.287h.405v-1.017Zm2.763 4.581c1.16 0 1.97-.585 2.16-1.557h-1.018c-.126.423-.522.657-1.125.657-.729 0-1.143-.396-1.224-1.179l3.348-.009v-.333c0-1.386-.846-2.277-2.178-2.277-1.305 0-2.214.963-2.214 2.358 0 1.377.927 2.34 2.25 2.34Zm-.028-3.798c.657 0 1.08.405 1.08 1.017H60.05c.108-.666.504-1.017 1.152-1.017Zm5.055 3.798c.675 0 1.251-.297 1.521-.81l.072.693h1.008v-6.696H67.77v2.817c-.279-.441-.828-.702-1.449-.702-1.34 0-2.15.99-2.15 2.376 0 1.377.8 2.322 2.087 2.322Zm.243-1.008c-.765 0-1.233-.558-1.233-1.35s.468-1.359 1.233-1.359c.765 0 1.26.558 1.26 1.359 0 .801-.495 1.35-1.26 1.35Zm7.305.891.072-.693c.261.513.828.81 1.494.81 1.278 0 2.115-.945 2.115-2.313 0-1.404-.774-2.394-2.043-2.394-.675 0-1.269.297-1.557.792v-2.898h-1.098v6.696h1.017Zm.09-2.241c0-.801.495-1.359 1.251-1.359.774 0 1.233.567 1.233 1.359s-.459 1.35-1.233 1.35c-.756 0-1.25-.549-1.25-1.35Zm4.092 4.302c.243.063.513.099.819.099.728 0 1.197-.342 1.53-1.17l2.177-5.436H81.38l-1.206 3.24-1.142-3.24H77.87l1.791 4.635-.126.333c-.189.522-.459.621-.89.621h-.657v.918ZM19.816 35.596l-2.89-7.432H15v9.672h1.314V30.23l2.996 7.648h.959l3.022-7.716v7.675h1.355v-9.672h-1.939l-2.89 7.432Zm8.837-7.433h-1.422v9.673h1.422v-9.672Zm19.01 4.828a3.188 3.188 0 0 0 .59-1.87c0-.791-.34-1.53-.958-2.08-.637-.566-1.523-.876-2.497-.876h-3.925v9.673h1.422v-3.46h2.303l2.008 3.459h1.688l-2.15-3.696a3.277 3.277 0 0 0 1.519-1.15Zm-.86-1.856a1.925 1.925 0 0 1-.548 1.369c-.362.362-.87.561-1.43.561h-2.532v-3.573h2.532c1.128 0 1.979.706 1.979 1.643ZM54.28 28c-1.334 0-2.537.525-3.392 1.477-.822.918-1.276 2.169-1.276 3.523s.453 2.612 1.276 3.529c.852.948 2.057 1.47 3.392 1.47 1.341 0 2.55-.523 3.404-1.47.824-.916 1.278-2.17 1.278-3.53 0-1.36-.454-2.605-1.278-3.522C56.83 28.523 55.62 28 54.28 28Zm0 8.645a2.997 2.997 0 0 1-1.27-.278 3.047 3.047 0 0 1-1.04-.79c-.586-.678-.909-1.593-.909-2.577s.323-1.892.91-2.572a3.017 3.017 0 0 1 2.31-1.073c.892 0 1.715.381 2.316 1.074.59.68.916 1.593.916 2.57 0 .979-.325 1.899-.916 2.578a3.064 3.064 0 0 1-1.044.79c-.4.184-.834.28-1.273.278Zm12.474-3.883c.83-.466 1.322-1.283 1.322-2.199 0-1.413-1.233-2.4-2.995-2.4h-4.17v9.673h4.37c1.736 0 2.996-1.175 2.996-2.794.001-.972-.58-1.839-1.523-2.28Zm-1.431 3.747h-2.99v-3.002h2.786c1.022 0 1.71.557 1.71 1.386 0 .981-.591 1.616-1.506 1.616Zm-.364-4.303h-2.627v-2.714h2.787c.917 0 1.507.484 1.507 1.235.001.737-.515 1.48-1.667 1.48v-.001Zm6.787-4.043h-1.422v9.673h6.222v-1.355h-4.8v-8.318Zm7.808 0h-1.422v9.673h1.422v-9.672Zm8.93 7.157-4.954-7.126-.021-.03h-1.375v9.672h1.341v-7.51l5.219 7.51h1.131v-9.672h-1.34v7.156Zm7.694-2.9 3.72-4.257H98.16l-4.333 4.948v-4.947h-1.422v9.672h1.422V35.03l1.38-1.56 3.07 4.367H100l-3.822-5.417Zm-58.265 2.144c-.634 1.468-1.448 2.094-2.726 2.094-.874 0-1.674-.38-2.253-1.069-.571-.678-.885-1.598-.885-2.59 0-.983.307-1.896.864-2.572.571-.691 1.364-1.072 2.234-1.072 1.177 0 2.039.597 2.633 1.825l.025.052h1.488l-.007-.042c-.035-.204-.109-.394-.18-.581l-.023-.06a3.979 3.979 0 0 0-1.522-1.872c-.685-.45-1.511-.677-2.455-.677-1.29 0-2.453.525-3.277 1.478-.793.917-1.23 2.168-1.23 3.522 0 1.372.44 2.629 1.237 3.538.839.956 1.988 1.462 3.324 1.462.936 0 1.758-.247 2.445-.733.115-.082.226-.17.332-.264.696-.615 1.223-1.491 1.41-2.343l.004-.022c.007-.03.012-.06.017-.088l.007-.042h-1.439l-.023.056Z"/>
</svg>